:SAMPLES-PER-SECOND 30
:FULLY-SPECIFIED
:DEGREES
161
root  48.1796 19.472 2.95291 -144.575 77.6026 163.735
RightUpLeg  -47.382 4.74665 9.37542
RightLeg  102.838 6.09838 21.6864
RightFoot  -5.24485 0.169511 -2.43417
RightToes  1.86264e-009 -3.18055e-015 8.94531e-016
Spine  55.3161 -5.3732 13.837
Spine1  -32.437 -0.401026 -16.3538
HEad  -60.0982 -14.8561 16.44
LeftShoulder1  0 -2.69403e-036 -1.28585e-037
LeftArm  13.8881 -25.5006 -109.482
LeftForeArm  33.0413 -6.54727 -2.63165
LeftHand  -4.22139 -0.895197 48.7538
RightShoulder  -2.48481e-017 0 -8.08114e-019
RightArm  -15.4336 40.5723 53.484
RightForeArm  4.56007 11.7964 -9.97937
RightHand  3.27783 -14.9587 -22.9456
LeftUpLeg  -39.6017 -0.256979 11.1132
LeftLeg  93.7939 -12.3731 -7.27009
LeftFoot  20.6734 0.740011 -2.20347
LeftToes  -3.27418e-010 -1.10613e-010 -1.08532e-012
162
root  48.819 19.5054 3.18011 -149.199 78.3039 159.677
RightUpLeg  -44.7626 5.60671 9.1767
RightLeg  100.855 7.0808 20.5652
RightFoot  -5.08921 0.202113 -2.8367
RightToes  1.86264e-009 -3.18055e-015 8.94531e-016
Spine  55.3577 -5.10044 12.2118
Spine1  -31.5513 -0.849047 -16.688
HEad  -59.8002 -14.8899 17.2581
LeftShoulder1  0 -2.69403e-036 -1.28585e-037
LeftArm  13.7598 -25.1784 -108.443
LeftForeArm  33.8474 -5.31624 -3.31349
LeftHand  -4.29771 -0.915221 49.3796
RightShoulder  -2.48481e-017 0 -8.08114e-019
RightArm  -14.9841 43.1104 55.8261
RightForeArm  3.29463 6.95986 -6.57875
RightHand  3.13881 -14.8449 -21.704
LeftUpLeg  -44.5415 -0.082394 10.3384
LeftLeg  100.2 -11.7353 -7.59871
LeftFoot  18.5253 0.28487 -0.790477
LeftToes  -3.27418e-010 -1.10613e-010 -1.08532e-012
163
root  49.511 19.4975 3.41639 -152.528 79.3228 157.449
RightUpLeg  -41.3966 6.75342 9.32913
RightLeg  98.6411 8.02052 19.5821
RightFoot  -4.55078 0.293431 -3.89342
RightToes  1.86264e-009 -3.18055e-015 8.94531e-016
Spine  55.7097 -4.629 10.7207
Spine1  -30.4493 -0.957615 -17.5413
HEad  -59.4349 -15.0457 17.9464
LeftShoulder1  0 -2.69403e-036 -1.28585e-037
LeftArm  14.4965 -25.0133 -107.419
LeftForeArm  33.6883 -4.26376 -4.10501
LeftHand  -4.3539 -0.9365 49.7968
RightShoulder  -2.48481e-017 0 -8.08114e-019
RightArm  -12.8651 43.8602 58.8529
RightForeArm  1.80013 3.66943 -4.39502
RightHand  3.60831 -15.7374 -23.8485
LeftUpLeg  -49.1839 -0.312018 10.1601
LeftLeg  105.84 -10.9608 -8.25247
LeftFoot  16.0136 -0.0825761 0.496684
LeftToes  -3.27418e-010 -1.10613e-010 -1.08532e-012
164
root  50.2565 19.4568 3.64237 -155.787 80.6403 155.615
RightUpLeg  -37.5459 8.00282 9.46075
RightLeg  96.2935 8.89 18.764
RightFoot  -4.53246 0.290597 -3.83062
RightToes  1.86264e-009 -3.18055e-015 8.94531e-016
Spine  55.488 -4.33466 9.06261
Spine1  -26.8733 -0.902639 -18.1658
HEad  -60.513 -13.577 18.4738
LeftShoulder1  0 -2.69403e-036 -1.28585e-037
LeftArm  15.5726 -26.3085 -105.268
LeftForeArm  32.4899 -4.4207 -4.44436
LeftHand  -4.35891 -0.940788 49.8187
RightShoulder  -2.48481e-017 0 -8.08114e-019
RightArm  -12.7649 44.6015 62.2737
RightForeArm  1.12284 1.83827 -4.73859
RightHand  4.37259 -16.8798 -27.6912
LeftUpLeg  -53.5464 -0.992365 10.1822
LeftLeg  110.685 -9.7382 -9.92032
LeftFoot  12.7071 -0.259725 1.28764
LeftToes  -3.27418e-010 -1.10613e-010 -1.08532e-012
